<svg width="420" height="320" viewBox="0 0 462 308" fill="none" xmlns="http://www.w3.org/2000/svg">
<path d="M315.527 138.454C304.013 145.748 287.084 139.687 287.084 139.687C287.084 139.687 288.835 121.803 300.357 114.516C311.872 107.222 328.794 113.275 328.794 113.275C328.794 113.275 327.042 131.159 315.527 138.454Z" fill="url(#paint0_linear_50_22)"/>
<path d="M287.237 256.286C287.022 256.201 286.846 256.038 286.746 255.829C286.645 255.621 286.627 255.382 286.695 255.16C286.762 254.939 286.911 254.751 287.111 254.634C287.311 254.517 287.548 254.48 287.774 254.531C290.004 255.041 292.248 255.489 294.503 255.873C294.622 255.893 294.735 255.937 294.837 256.002C294.939 256.066 295.028 256.15 295.097 256.249C295.167 256.347 295.216 256.459 295.243 256.576C295.269 256.694 295.272 256.816 295.252 256.935C295.21 257.175 295.075 257.389 294.876 257.529C294.677 257.67 294.431 257.727 294.19 257.686C291.901 257.296 289.622 256.842 287.358 256.325C287.318 256.313 287.277 256.302 287.237 256.286ZM300.851 258.636C300.643 258.555 300.471 258.4 300.367 258.202C300.264 258.003 300.237 257.773 300.291 257.556C300.345 257.339 300.477 257.148 300.661 257.021C300.845 256.894 301.069 256.838 301.292 256.864C303.57 257.135 305.864 257.351 308.116 257.505C308.359 257.522 308.585 257.635 308.745 257.818C308.905 258.002 308.987 258.241 308.971 258.484C308.955 258.727 308.843 258.954 308.659 259.115C308.476 259.275 308.236 259.357 307.993 259.341C305.707 259.187 303.381 258.967 301.073 258.692C300.997 258.681 300.923 258.662 300.851 258.636ZM314.618 259.556C314.418 259.478 314.251 259.332 314.147 259.143C314.043 258.955 314.008 258.736 314.049 258.524C314.09 258.313 314.204 258.123 314.37 257.986C314.537 257.85 314.747 257.777 314.962 257.78C317.244 257.809 319.526 257.77 321.806 257.662C321.926 257.656 322.047 257.674 322.16 257.715C322.274 257.756 322.378 257.819 322.467 257.9C322.557 257.982 322.629 258.08 322.68 258.189C322.731 258.298 322.76 258.416 322.766 258.537C322.789 259.045 322.398 259.475 321.891 259.5C319.619 259.61 317.281 259.649 314.937 259.616C314.828 259.617 314.719 259.597 314.618 259.556ZM328.394 258.889C328.236 258.829 328.099 258.726 327.996 258.593C327.893 258.46 327.829 258.301 327.811 258.133C327.797 258.013 327.807 257.892 327.841 257.776C327.874 257.66 327.93 257.552 328.005 257.457C328.08 257.363 328.173 257.284 328.279 257.226C328.384 257.167 328.5 257.13 328.62 257.117C330.918 256.852 333.189 256.506 335.372 256.09C335.491 256.067 335.613 256.068 335.731 256.092C335.849 256.117 335.962 256.164 336.061 256.232C336.161 256.301 336.246 256.388 336.312 256.489C336.378 256.59 336.423 256.704 336.445 256.823C336.491 257.062 336.44 257.31 336.303 257.512C336.166 257.714 335.955 257.853 335.716 257.899C333.433 258.334 331.136 258.683 328.827 258.948C328.68 258.96 328.532 258.94 328.394 258.889ZM341.926 256.278C341.792 256.227 341.672 256.145 341.575 256.038C341.478 255.932 341.409 255.804 341.371 255.665C341.306 255.43 341.337 255.178 341.457 254.965C341.577 254.753 341.777 254.596 342.012 254.53C344.198 253.919 346.355 253.205 348.474 252.391C348.702 252.304 348.955 252.311 349.178 252.41C349.4 252.51 349.574 252.693 349.662 252.92C349.843 253.394 349.606 253.925 349.132 254.111C346.959 254.945 344.747 255.676 342.505 256.302C342.315 256.357 342.111 256.349 341.926 256.278ZM354.762 251.31C354.549 251.23 354.375 251.072 354.273 250.868C354.163 250.65 354.144 250.397 354.219 250.165C354.295 249.933 354.46 249.74 354.678 249.63C356.693 248.601 358.649 247.461 360.537 246.213C360.637 246.146 360.75 246.1 360.869 246.077C360.987 246.053 361.109 246.054 361.227 246.078C361.346 246.102 361.458 246.149 361.558 246.216C361.659 246.284 361.745 246.37 361.811 246.471C361.946 246.675 361.994 246.923 361.946 247.163C361.897 247.402 361.756 247.612 361.552 247.748C359.607 249.035 357.591 250.212 355.513 251.272C355.397 251.33 355.271 251.363 355.141 251.369C355.012 251.376 354.883 251.356 354.762 251.31ZM366.209 243.701C366.06 243.643 365.929 243.548 365.828 243.424C365.728 243.3 365.661 243.153 365.635 242.996C365.608 242.838 365.623 242.677 365.678 242.527C365.733 242.377 365.825 242.244 365.947 242.141C367.665 240.676 369.294 239.108 370.823 237.445C370.905 237.356 371.003 237.285 371.112 237.234C371.222 237.183 371.34 237.154 371.461 237.149C371.582 237.144 371.702 237.163 371.815 237.204C371.929 237.245 372.033 237.309 372.122 237.39C372.211 237.472 372.283 237.571 372.333 237.68C372.384 237.789 372.413 237.908 372.418 238.029C372.423 238.149 372.405 238.27 372.363 238.383C372.322 238.496 372.258 238.6 372.177 238.689C370.597 240.408 368.915 242.028 367.138 243.542C366.866 243.767 366.51 243.816 366.209 243.701ZM375.512 233.592C375.38 233.542 375.262 233.462 375.167 233.359C375.071 233.255 375.001 233.131 374.961 232.997C374.92 232.862 374.912 232.719 374.935 232.581C374.959 232.442 375.014 232.311 375.096 232.197C376.416 230.362 377.633 228.455 378.742 226.485C378.801 226.379 378.88 226.286 378.975 226.211C379.07 226.137 379.179 226.082 379.295 226.049C379.412 226.017 379.533 226.008 379.653 226.023C379.773 226.038 379.889 226.076 379.994 226.137C380.099 226.196 380.192 226.276 380.267 226.371C380.341 226.466 380.396 226.575 380.429 226.691C380.461 226.808 380.47 226.93 380.456 227.05C380.441 227.17 380.403 227.286 380.344 227.391C379.201 229.422 377.947 231.387 376.586 233.279C376.465 233.44 376.295 233.558 376.101 233.615C375.908 233.672 375.701 233.664 375.512 233.592ZM382.358 221.652L382.297 221.629C382.188 221.578 382.089 221.506 382.008 221.417C381.926 221.328 381.863 221.224 381.821 221.11C381.78 220.997 381.761 220.876 381.767 220.756C381.772 220.635 381.801 220.517 381.852 220.407C382.809 218.346 383.675 216.245 384.447 214.108C384.486 213.992 384.548 213.884 384.628 213.792C384.709 213.7 384.807 213.625 384.917 213.572C385.028 213.518 385.147 213.487 385.27 213.481C385.392 213.474 385.514 213.492 385.629 213.533C385.745 213.575 385.85 213.639 385.941 213.722C386.031 213.805 386.103 213.905 386.154 214.016C386.205 214.127 386.233 214.248 386.237 214.37C386.24 214.493 386.22 214.615 386.175 214.729C386.002 215.214 385.815 215.711 385.627 216.204C384.979 217.887 384.275 219.548 383.516 221.185C383.417 221.394 383.243 221.558 383.028 221.645C382.814 221.731 382.575 221.734 382.358 221.652ZM386.964 208.668C386.756 208.587 386.585 208.434 386.481 208.237C386.378 208.039 386.349 207.811 386.401 207.594C386.942 205.334 387.33 203.088 387.551 200.923C387.576 200.68 387.696 200.458 387.884 200.304C388.073 200.15 388.315 200.077 388.557 200.101C388.677 200.113 388.794 200.149 388.9 200.207C389.006 200.264 389.1 200.342 389.176 200.436C389.252 200.53 389.308 200.638 389.343 200.753C389.377 200.869 389.388 200.99 389.375 201.11C389.143 203.358 388.742 205.681 388.182 208.022C388.126 208.259 387.977 208.464 387.769 208.592C387.561 208.719 387.311 208.759 387.074 208.702C387.041 208.693 387 208.682 386.964 208.668ZM388.311 194.991C388.146 194.927 388.003 194.817 387.898 194.674C387.794 194.531 387.733 194.361 387.723 194.184C387.592 191.897 387.26 189.663 386.73 187.548C386.67 187.311 386.707 187.061 386.832 186.852C386.957 186.642 387.16 186.491 387.396 186.431C387.513 186.401 387.635 186.395 387.754 186.413C387.874 186.43 387.988 186.471 388.092 186.533C388.195 186.595 388.286 186.676 388.357 186.773C388.429 186.87 388.481 186.98 388.511 187.097C389.069 189.322 389.419 191.67 389.558 194.076C389.565 194.196 389.548 194.317 389.509 194.431C389.469 194.545 389.407 194.65 389.327 194.74C389.246 194.83 389.149 194.904 389.04 194.956C388.931 195.009 388.813 195.039 388.693 195.046C388.557 195.057 388.429 195.036 388.311 194.991ZM360.557 183.208C360.339 183.125 360.161 182.961 360.06 182.75C359.958 182.54 359.941 182.299 360.011 182.076C360.084 181.843 360.246 181.648 360.463 181.535C360.679 181.422 360.931 181.399 361.164 181.472C363.198 182.11 365.451 182.446 367.678 182.443C367.918 182.449 368.146 182.549 368.314 182.721C368.482 182.893 368.576 183.124 368.575 183.365C368.575 183.605 368.481 183.836 368.312 184.008C368.144 184.18 367.915 184.279 367.675 184.284C365.263 184.287 362.821 183.92 360.61 183.229C360.593 183.219 360.571 183.214 360.557 183.208ZM354.567 179.916C354.458 179.873 354.358 179.811 354.271 179.732C352.014 177.627 351.133 175.117 351.796 172.668C351.86 172.433 352.014 172.233 352.225 172.111C352.436 171.99 352.686 171.957 352.921 172.02C353.038 172.051 353.147 172.105 353.242 172.179C353.338 172.253 353.418 172.345 353.478 172.45C353.538 172.555 353.576 172.671 353.591 172.79C353.606 172.91 353.598 173.032 353.566 173.148C352.957 175.404 354.292 177.243 355.519 178.389C355.674 178.534 355.775 178.728 355.803 178.939C355.831 179.15 355.785 179.364 355.672 179.544C355.56 179.725 355.388 179.861 355.187 179.928C354.985 179.996 354.766 179.992 354.567 179.916ZM374.132 183.19C374.002 183.14 373.885 183.062 373.79 182.961C373.695 182.859 373.624 182.737 373.583 182.604C373.511 182.371 373.534 182.119 373.647 181.903C373.76 181.687 373.953 181.524 374.186 181.451C376.288 180.793 378.27 179.797 380.053 178.503C380.151 178.431 380.262 178.38 380.379 178.352C380.496 178.324 380.618 178.319 380.737 178.338C380.857 178.357 380.971 178.399 381.074 178.462C381.177 178.525 381.266 178.608 381.337 178.706C381.408 178.804 381.459 178.915 381.487 179.032C381.515 179.15 381.52 179.272 381.501 179.391C381.482 179.511 381.439 179.625 381.376 179.728C381.313 179.831 381.23 179.921 381.132 179.992C379.189 181.404 377.028 182.49 374.734 183.206C374.532 183.273 374.318 183.261 374.132 183.19ZM384.927 181.722C384.712 181.64 384.536 181.479 384.433 181.273C383.448 179.275 382.231 177.401 380.807 175.688C380.73 175.596 380.671 175.489 380.636 175.373C380.6 175.258 380.587 175.137 380.598 175.017C380.609 174.897 380.643 174.78 380.699 174.673C380.756 174.566 380.832 174.471 380.925 174.394C381.018 174.317 381.124 174.259 381.239 174.223C381.354 174.187 381.475 174.174 381.595 174.184C381.715 174.195 381.832 174.23 381.939 174.285C382.045 174.341 382.14 174.418 382.217 174.51C383.732 176.335 385.028 178.331 386.079 180.457C386.304 180.911 386.12 181.466 385.663 181.691C385.422 181.805 385.157 181.81 384.927 181.722ZM356.74 168.653C356.579 168.59 356.439 168.483 356.335 168.345C356.232 168.206 356.169 168.041 356.155 167.868C356.141 167.695 356.176 167.522 356.256 167.369C356.335 167.215 356.457 167.086 356.606 166.998C358.644 165.81 361.012 165.18 363.643 165.129C363.764 165.127 363.884 165.149 363.996 165.193C364.108 165.237 364.211 165.303 364.298 165.386C364.384 165.47 364.454 165.57 364.502 165.681C364.55 165.792 364.575 165.911 364.577 166.031C364.579 166.152 364.558 166.272 364.514 166.384C364.47 166.497 364.404 166.599 364.32 166.686C364.236 166.773 364.136 166.842 364.026 166.891C363.915 166.939 363.796 166.965 363.675 166.967C361.363 167.012 359.296 167.555 357.532 168.585C357.413 168.656 357.281 168.698 357.144 168.71C357.007 168.722 356.869 168.702 356.74 168.653ZM385.111 175.244C385.035 175.214 384.963 175.175 384.896 175.129C384.798 175.058 384.716 174.968 384.653 174.864C384.59 174.761 384.548 174.646 384.53 174.526C384.512 174.407 384.517 174.284 384.546 174.167C384.575 174.049 384.627 173.939 384.699 173.841C385.95 172.133 387.023 170.17 387.883 168.011C387.973 167.786 388.147 167.606 388.368 167.509C388.589 167.412 388.84 167.406 389.065 167.491L389.076 167.495C389.303 167.586 389.484 167.762 389.58 167.986C389.676 168.21 389.679 168.463 389.589 168.69C388.669 170.994 387.523 173.094 386.178 174.928C386.059 175.09 385.891 175.209 385.698 175.266C385.505 175.324 385.299 175.316 385.111 175.244ZM376.16 171.266C376.086 171.236 376.017 171.199 375.952 171.153C374.108 169.828 372.134 168.787 370.108 168.073C369.878 167.991 369.691 167.821 369.586 167.601C369.481 167.381 369.468 167.128 369.55 166.898C369.59 166.784 369.652 166.68 369.733 166.59C369.814 166.5 369.911 166.427 370.02 166.375C370.129 166.323 370.248 166.293 370.368 166.286C370.489 166.28 370.61 166.298 370.723 166.338C372.911 167.111 375.044 168.233 377.026 169.661C377.438 169.959 377.532 170.53 377.237 170.945C376.986 171.289 376.54 171.411 376.16 171.266ZM390.32 162.586C390.119 162.508 389.951 162.362 389.847 162.172C389.742 161.983 389.708 161.763 389.75 161.551C390.158 159.457 390.433 157.194 390.566 154.829C390.58 154.586 390.69 154.357 390.872 154.195C391.054 154.032 391.292 153.948 391.536 153.96C391.78 153.975 392.007 154.085 392.17 154.267C392.332 154.449 392.416 154.688 392.402 154.931C392.266 157.381 391.981 159.724 391.553 161.9C391.507 162.14 391.368 162.351 391.166 162.488C390.964 162.624 390.716 162.675 390.476 162.629C390.423 162.62 390.371 162.606 390.32 162.586ZM391.172 148.847C391.006 148.783 390.862 148.672 390.757 148.527C390.653 148.382 390.592 148.211 390.584 148.032C390.477 145.759 390.281 143.491 389.994 141.233C389.964 140.991 390.032 140.747 390.181 140.554C390.33 140.361 390.55 140.235 390.791 140.203C391.033 140.173 391.277 140.241 391.47 140.39C391.662 140.54 391.788 140.759 391.819 141.001C392.115 143.393 392.319 145.726 392.419 147.944C392.426 148.097 392.395 148.248 392.329 148.386C392.262 148.523 392.163 148.642 392.039 148.732C391.916 148.821 391.772 148.879 391.62 148.899C391.469 148.919 391.315 148.901 391.172 148.847ZM389.364 135.193C389.225 135.14 389.101 135.054 389.003 134.942C388.904 134.831 388.835 134.697 388.799 134.552C388.258 132.36 387.577 130.205 386.76 128.1C386.671 127.873 386.676 127.619 386.775 127.395C386.873 127.172 387.056 126.996 387.283 126.907C387.395 126.863 387.515 126.842 387.636 126.844C387.757 126.846 387.876 126.873 387.986 126.921C388.097 126.97 388.197 127.039 388.28 127.127C388.364 127.214 388.429 127.317 388.473 127.429C389.319 129.609 390.024 131.841 390.584 134.111C390.624 134.274 390.619 134.445 390.569 134.605C390.518 134.765 390.426 134.909 390.3 135.02C390.175 135.131 390.021 135.206 389.856 135.237C389.691 135.267 389.521 135.252 389.364 135.193ZM384.403 122.38C384.198 122.301 384.028 122.151 383.924 121.956C382.849 119.965 381.663 118.036 380.372 116.177C380.303 116.078 380.255 115.967 380.229 115.849C380.203 115.731 380.201 115.609 380.222 115.49C380.244 115.371 380.289 115.257 380.354 115.156C380.419 115.054 380.504 114.967 380.604 114.898C381.019 114.608 381.593 114.708 381.881 115.128C383.212 117.043 384.434 119.031 385.541 121.084C385.599 121.191 385.634 121.307 385.647 121.427C385.659 121.548 385.647 121.669 385.613 121.785C385.578 121.9 385.521 122.008 385.444 122.102C385.368 122.195 385.273 122.273 385.167 122.33C385.051 122.393 384.922 122.43 384.791 122.438C384.659 122.447 384.527 122.427 384.403 122.38ZM244.302 60.979C244.129 60.9128 243.98 60.7961 243.875 60.644C243.77 60.492 243.713 60.3117 243.711 60.1268C243.71 59.8831 243.805 59.6488 243.975 59.4748C244.146 59.3008 244.379 59.2014 244.622 59.1981C246.615 59.1828 248.953 59.2633 251.58 59.4376C251.7 59.4457 251.818 59.4774 251.926 59.531C252.034 59.5845 252.131 59.6588 252.21 59.7497C252.29 59.8405 252.35 59.9462 252.389 60.0605C252.427 60.1748 252.443 60.2956 252.435 60.416C252.418 60.6593 252.306 60.8861 252.123 61.0468C251.939 61.2075 251.7 61.289 251.456 61.2734C248.877 61.1046 246.579 61.0241 244.635 61.0416C244.521 61.0417 244.408 61.0205 244.302 60.979ZM376.579 111.06C376.436 111.006 376.31 110.916 376.211 110.799C374.734 109.076 373.182 107.418 371.559 105.831C371.473 105.746 371.404 105.646 371.356 105.535C371.309 105.424 371.284 105.305 371.283 105.184C371.282 105.063 371.305 104.944 371.35 104.832C371.395 104.72 371.462 104.618 371.546 104.532C371.63 104.446 371.731 104.377 371.841 104.329C371.952 104.282 372.071 104.257 372.192 104.255C372.312 104.254 372.432 104.276 372.544 104.321C372.656 104.367 372.757 104.433 372.843 104.518C374.503 106.144 376.093 107.841 377.607 109.604C377.74 109.759 377.817 109.954 377.826 110.159C377.836 110.363 377.777 110.564 377.659 110.731C377.541 110.898 377.371 111.021 377.176 111.081C376.98 111.141 376.77 111.133 376.579 111.06ZM258.059 61.8174C257.87 61.7447 257.71 61.6113 257.604 61.4381C257.499 61.2649 257.454 61.0616 257.476 60.8601C257.488 60.7399 257.525 60.6234 257.582 60.5173C257.64 60.4112 257.718 60.3175 257.812 60.2417C257.906 60.1659 258.014 60.1095 258.13 60.0757C258.246 60.0419 258.368 60.0314 258.488 60.0447C260.696 60.2811 263.006 60.5647 265.356 60.8924C265.475 60.909 265.59 60.9491 265.695 61.0103C265.799 61.0715 265.89 61.1526 265.962 61.249C266.035 61.3454 266.088 61.4552 266.118 61.5721C266.149 61.689 266.156 61.8107 266.139 61.9302C266.122 62.05 266.082 62.1653 266.021 62.2696C265.96 62.3739 265.879 62.4651 265.783 62.5381C265.687 62.611 265.577 62.6643 265.46 62.6948C265.343 62.7253 265.221 62.7324 265.101 62.7158C262.834 62.401 260.563 62.121 258.287 61.8759C258.209 61.8659 258.132 61.8463 258.059 61.8174ZM366.768 101.407C366.673 101.371 366.585 101.319 366.506 101.253C364.762 99.7911 362.969 98.3867 361.132 97.0422C360.936 96.8981 360.805 96.682 360.768 96.4413C360.73 96.2006 360.79 95.9549 360.933 95.7582C361.077 95.5616 361.292 95.43 361.533 95.3923C361.773 95.3546 362.019 95.4139 362.215 95.5572C364.086 96.9251 365.912 98.3545 367.688 99.843C367.855 99.9828 367.967 100.177 368.004 100.392C368.041 100.606 368 100.827 367.89 101.014C367.78 101.202 367.606 101.344 367.401 101.416C367.196 101.488 366.972 101.485 366.768 101.407ZM271.714 63.6957C271.501 63.6141 271.326 63.4565 271.223 63.2534C271.12 63.0503 271.096 62.8161 271.156 62.5963C271.215 62.3765 271.355 62.1867 271.546 62.0636C271.738 61.9405 271.968 61.893 272.193 61.9302C274.437 62.2999 276.728 62.7081 279 63.1419C279.24 63.1884 279.451 63.3276 279.588 63.5291C279.725 63.7307 279.776 63.9782 279.731 64.2177C279.685 64.4572 279.547 64.6688 279.345 64.8063C279.144 64.9438 278.896 64.996 278.656 64.9515C276.406 64.5236 274.151 64.1223 271.891 63.7475C271.831 63.7357 271.771 63.7184 271.714 63.6957ZM285.252 66.2755C285.047 66.1971 284.877 66.0475 284.773 65.8541C284.669 65.6606 284.637 65.4362 284.685 65.2217C284.737 64.9833 284.881 64.7751 285.086 64.6427C285.291 64.5103 285.54 64.4646 285.778 64.5156C288.028 64.9987 290.295 65.513 292.52 66.0489C292.638 66.0765 292.749 66.1271 292.847 66.198C292.945 66.2689 293.028 66.3584 293.091 66.4616C293.154 66.5647 293.196 66.6793 293.214 66.7988C293.232 66.9183 293.227 67.0402 293.198 67.1575C293.141 67.3945 292.992 67.5992 292.785 67.7267C292.577 67.8542 292.327 67.894 292.09 67.8374C289.863 67.3033 287.629 66.7949 285.39 66.3124C285.343 66.3057 285.296 66.2933 285.252 66.2755ZM355.668 93.2584C355.61 93.2352 355.553 93.2067 355.5 93.1733C353.582 91.9375 351.635 90.7488 349.66 89.6084C349.449 89.4866 349.295 89.286 349.232 89.0509C349.169 88.8157 349.201 88.565 349.322 88.3537C349.382 88.2488 349.463 88.1568 349.558 88.083C349.654 88.0092 349.764 87.955 349.88 87.9236C349.997 87.8921 350.119 87.884 350.239 87.8998C350.359 87.9155 350.474 87.9547 350.579 88.0152C352.583 89.1682 354.557 90.3728 356.499 91.6277C356.704 91.7603 356.847 91.9685 356.899 92.2068C356.95 92.445 356.905 92.6939 356.773 92.8989C356.657 93.0754 356.484 93.2072 356.284 93.2725C356.083 93.3379 355.866 93.3329 355.668 93.2584ZM298.654 69.4911C298.442 69.4091 298.268 69.252 298.165 69.0499C298.062 68.8478 298.037 68.6147 298.095 68.3953C298.157 68.1599 298.31 67.9588 298.521 67.8363C298.731 67.7137 298.982 67.6796 299.217 67.7415C301.445 68.3319 303.665 68.9506 305.876 69.5973C306.108 69.6685 306.302 69.828 306.416 70.0411C306.531 70.2542 306.557 70.5039 306.489 70.7361C306.421 70.9684 306.265 71.1645 306.053 71.2822C305.842 71.3998 305.592 71.4295 305.359 71.3648C303.162 70.7241 300.957 70.1098 298.744 69.5219C298.716 69.5111 298.682 69.5024 298.654 69.4911ZM343.738 86.3661C343.705 86.3543 343.674 86.3406 343.643 86.3251C341.613 85.2754 339.563 84.267 337.493 83.3007C337.383 83.2497 337.285 83.1775 337.203 83.0882C337.122 82.999 337.059 82.8945 337.018 82.7807C336.977 82.6669 336.959 82.5462 336.965 82.4255C336.971 82.3047 337.001 82.1864 337.053 82.0773C337.104 81.9676 337.176 81.869 337.265 81.7873C337.354 81.7056 337.458 81.6424 337.572 81.6012C337.686 81.5601 337.806 81.5419 337.927 81.5476C338.048 81.5534 338.166 81.583 338.275 81.6347C340.366 82.6142 342.438 83.6336 344.49 84.6924C344.706 84.8048 344.869 84.9983 344.943 85.2306C345.017 85.4628 344.995 85.7148 344.883 85.9313C344.779 86.1319 344.605 86.2871 344.394 86.3674C344.182 86.4476 343.949 86.4471 343.738 86.3661ZM311.876 73.3554C311.657 73.2707 311.478 73.1055 311.377 72.8935C311.275 72.6815 311.259 72.4388 311.33 72.215C311.405 71.9831 311.568 71.7901 311.784 71.6783C312 71.5665 312.252 71.545 312.484 71.6186C314.679 72.323 316.864 73.0574 319.039 73.8215C319.268 73.9049 319.455 74.0748 319.56 74.2947C319.665 74.5146 319.68 74.7669 319.6 74.9973C319.52 75.2274 319.352 75.4161 319.132 75.5221C318.913 75.628 318.66 75.6425 318.43 75.5624C316.271 74.802 314.102 74.0735 311.922 73.377C311.908 73.3677 311.894 73.3626 311.876 73.3554ZM331.262 80.5215L331.229 80.5087C329.124 79.615 327.004 78.7571 324.87 77.9356C324.642 77.8472 324.459 77.6723 324.36 77.4491C324.262 77.2259 324.255 76.9726 324.343 76.7449C324.386 76.6324 324.451 76.5295 324.534 76.4422C324.617 76.3548 324.716 76.2846 324.826 76.2357C324.937 76.1868 325.055 76.1601 325.176 76.1571C325.296 76.1541 325.416 76.1749 325.528 76.2183L325.532 76.2193C327.685 77.0495 329.823 77.9158 331.947 78.818C332.058 78.8651 332.159 78.9337 332.243 79.0197C332.328 79.1058 332.394 79.2076 332.439 79.3195C332.484 79.4313 332.507 79.551 332.506 79.6715C332.504 79.7921 332.479 79.9112 332.432 80.022C332.339 80.2407 332.166 80.415 331.948 80.5081C331.729 80.6013 331.483 80.6061 331.262 80.5215Z" fill="#E1E4E5"/>
<path fill-rule="evenodd" clip-rule="evenodd" d="M219.546 107.694C216.904 104.549 210.64 103.999 206.544 108.059C203.899 110.682 203.464 113.667 203.989 115.749C204.015 115.851 204.038 115.955 204.058 116.06L215.079 173.668C217.642 185.407 226.967 194.676 238.869 197.229L296.982 208.155L296.997 208.158L297.035 208.165C300.053 208.764 303.271 207.531 305.145 205.673C308.999 201.853 308.999 196.403 305.145 192.583L219.884 108.059C219.766 107.942 219.653 107.82 219.546 107.694ZM193.301 109.97L151.078 152.193C141.251 162.019 141.251 177.019 151.078 186.845L217.678 253.446C219.821 255.588 223.294 255.588 225.437 253.446C225.501 253.381 225.563 253.316 225.623 253.25L230.638 258.21L234.734 255.178L258.916 257.11L261.602 254.126C263.758 255.989 267.019 255.897 269.065 253.851L304.515 218.401C301.542 219.312 298.259 219.589 294.93 218.934L236.776 208.001C236.733 207.993 236.691 207.984 236.649 207.975C220.515 204.548 207.811 191.979 204.341 175.924C204.331 175.882 204.323 175.839 204.314 175.796L193.308 118.262C192.672 115.629 192.647 112.784 193.301 109.97Z" fill="white"/>
<path d="M232.31 59.5956L232.442 65.8135L198.92 68.3205L232.31 59.5956Z" fill="white"/>
<path d="M231.728 72.7678L227.23 77.191L200.427 68.1825L231.728 72.7678Z" fill="white"/>
<path d="M198.92 68.3205L247.416 77.994L236.28 64.8946L198.92 68.3205Z" fill="white"/>
<path d="M232.31 59.5961L198.92 68.321L225.674 50.7394L232.31 59.5961ZM354.439 259.506C343.549 259.709 340.667 260.57 329.361 260.216C323.977 260.266 318.229 260.114 312.965 260.013C310.462 259.354 306.061 260.013 303.093 259.456L301.953 259.81C300.936 259.608 299.744 259.506 298.709 259.709L298.778 259.81C297.259 259.557 295.533 259.709 294.791 259.557L294.86 259.658L293.013 259.608L293.324 259.759C290.666 259.456 287.939 259.456 285.523 259.557L285.73 259.101C280.57 259.608 278.688 258.695 274.045 259.253L274.114 259.354C268.229 258.189 264.829 260.165 258.771 259.05C259.53 259.203 258.443 259.253 258.512 259.405C255.716 259.304 252.747 259.203 252.695 258.341C250.659 258.341 251.039 258.594 250.78 258.949C250.797 258.594 249.019 258.392 247.431 258.392L248.156 258.544L243.6 258.392L244.497 257.682C242.081 257.885 243.876 258.544 241.58 258.392L241.615 257.784C238.284 257.885 236.316 258.797 233.089 259.253C219.661 259.506 205.232 257.986 192.754 259.05L192.202 259.506C191.96 260.165 188.749 258.544 188.283 259.152L186.834 258.848C186.419 258.949 185.556 259.101 186.281 259.253C184.935 259.304 184.901 259.152 183.934 258.999L182.484 259.405C177.186 259.709 172.681 258.949 167.106 259.101C160.41 259.912 147.793 259.152 140.527 258.746C130.31 257.784 118.435 260.368 107.976 259.253C107.631 259.354 106.751 259.152 106.768 259.05L97.1889 259.152C97.1889 259.152 50.7784 259.405 86.0391 253.984L85.7975 253.832C91.0443 253.477 94.3409 253.427 97.9483 254.136C98.518 253.274 102.246 254.034 103.471 253.781L103.35 253.73C106.544 254.389 109.926 253.173 113.016 253.781C112.895 253.73 112.826 253.477 112.118 253.477C114.362 253.578 117.434 253.781 117.607 253.274C122.974 253.427 130.448 253.173 133.882 253.984L133.641 253.832C135.591 254.389 136.177 253.933 138.37 254.187C138.491 254.136 138.646 254.085 138.611 254.034C140.751 254.592 144.842 254.136 146.55 254.338L146.654 253.984L150.9 254.085L149.312 254.136C149.865 255.048 152.522 253.528 155.594 254.136C158.477 254.034 161.446 256.061 164.431 255.605C165.864 256.061 163.171 254.896 165.311 255.251C165.381 254.744 164.31 254.946 164.863 254.541C166.951 254.794 168.297 254.034 170.886 254.389L170.99 254.034C174.355 254.744 177.341 253.528 179.585 254.187C183.054 254.491 181.915 253.072 185.539 253.781L186.955 253.274C188.508 253.173 188.059 253.882 189.785 253.629C189.682 253.325 191.96 253.376 190.942 253.072C194.825 252.565 198.829 253.781 203.955 252.92C205.06 253.528 207.648 253.173 208.477 253.629C208.615 253.376 213.638 253.578 210.755 252.97C210.514 252.919 210.065 252.92 210.1 253.021L209.754 252.666C212.671 251.957 215.053 253.072 217.952 252.92C217.09 253.021 215.95 253.021 216.71 253.274L219.402 253.224L218.85 252.92L222.854 252.717L222.302 253.123C224.252 252.92 224.942 252.261 227.152 252.818C228.153 253.123 225.305 253.325 227.359 253.477C229.982 253.224 233.9 252.818 237.231 252.717C236.92 253.173 237.818 253.123 238.75 253.224L238.854 252.869C242.392 253.376 240.148 252.059 243.669 252.464L243.358 252.21L244.29 253.021C247.466 253.781 245.999 252.261 249.52 253.274C248.122 253.224 248.864 254.085 250.573 253.933L250.141 253.578C251.09 253.68 251.401 253.832 252.04 253.73C251.47 253.528 251.746 253.224 253.144 253.274L252.212 252.818L254.853 253.477C256.889 253.072 260.117 253.578 260.963 253.072C260.963 253.072 265.347 252.818 266.348 253.376C265.467 253.021 267.884 252.869 267.193 252.464C268.333 252.869 271.681 253.173 273.027 252.768L272.768 252.717C277.739 252.261 281.26 253.325 285.713 252.768C285.506 253.224 287.87 252.97 287.283 253.528C291.892 254.085 295.688 252.363 297.363 254.136C299.468 254.237 299.848 253.73 300.936 253.629L300.435 253.528C304.37 253.68 305.509 253.68 308.426 253.629C309.876 253.781 310.117 254.592 312.723 254.389C311.878 254.085 312.948 254.136 313.914 254.136C313.293 254.085 313.103 253.984 314.381 253.73C314.553 253.832 314.846 253.882 315.105 253.933C315.123 253.933 315.174 253.882 315.14 253.832C316.762 253.933 316.486 254.034 315.727 254.085C315.761 254.136 315.709 254.187 315.468 254.288C317.159 253.882 320.18 254.338 320.387 253.781C325.288 253.933 328.792 254.491 332.865 254.693C333.331 254.389 332.365 254.136 331.191 254.034L334.091 254.136C334.073 253.73 332.433 253.882 331.536 253.832C334.988 253.173 338.647 254.491 342.686 253.882L343.531 254.187L343.773 254.136C343.756 254.288 344.67 254.541 345.257 254.592C345.827 254.237 345.223 253.781 347.225 253.781C348.813 253.427 351.712 253.933 353.783 254.136C352.661 254.187 353.024 254.389 353.507 254.541C354.508 254.541 355.078 254.187 355.855 254.338L355.958 253.882C355.561 254.338 358.564 254.389 358.944 254.541C359.514 254.187 357.391 254.237 357.149 253.984C361.153 254.034 359.151 253.983 363.172 254.034C365.313 254.389 362.776 254.491 363.811 254.896C365.692 254.997 367.539 255.301 369.714 255.048L369.023 255.453C372.579 255.807 374.702 255.757 377.084 255.301C403.525 258.746 382.658 260.013 382.658 260.013C372.199 261.077 366.832 259.861 354.439 259.506Z" fill="white"/>
<path d="M341.168 157.798C338.89 159.114 335.977 158.333 334.662 156.055C333.346 153.777 334.127 150.864 336.405 149.548C338.683 148.233 341.597 149.014 342.912 151.292C344.227 153.57 343.447 156.483 341.168 157.798Z" fill="white"/>
<path d="M114.349 213.316C117.464 213.316 119.99 215.841 119.99 218.956C119.99 222.071 117.464 224.597 114.349 224.597C111.234 224.597 108.709 222.071 108.709 218.956C108.709 215.841 111.234 213.316 114.349 213.316Z" fill="white"/>
<path d="M165.365 104.094C163.244 104.094 161.525 105.813 161.525 107.935C161.525 110.056 163.244 111.775 165.365 111.775C167.487 111.775 169.206 110.056 169.206 107.935C169.206 105.813 167.487 104.094 165.365 104.094Z" fill="#E1E4E5"/>
<path d="M141.523 213.257C139.553 213.257 137.957 214.853 137.957 216.823C137.957 218.793 139.553 220.389 141.523 220.389C143.493 220.389 145.089 218.793 145.089 216.823C145.089 214.853 143.493 213.257 141.523 213.257Z" fill="#E1E4E5"/>
<path d="M91.5965 154.004C89.6268 154.004 88.0301 155.6 88.0301 157.57C88.0301 159.54 89.6268 161.136 91.5965 161.136C93.5661 161.136 95.1628 159.54 95.1628 157.57C95.1628 155.6 93.5661 154.004 91.5965 154.004Z" fill="#E1E4E5"/>
<path d="M120.195 108.741C125.388 108.741 129.598 112.95 129.598 118.143C129.598 123.337 125.388 127.546 120.195 127.546C115.002 127.546 110.792 123.337 110.792 118.143C110.792 112.95 115.002 108.741 120.195 108.741Z" fill="white"/>
<path d="M268.369 102.485C270.096 104.212 272.896 104.212 274.623 102.485C276.35 100.758 276.35 97.9584 274.623 96.2314C272.896 94.5044 270.096 94.5044 268.369 96.2314C266.642 97.9584 266.642 100.758 268.369 102.485Z" fill="#E1E4E5"/>
<path d="M333.171 200.4C330.077 197.306 330.077 192.29 333.171 189.196C336.265 186.103 341.281 186.103 344.374 189.196C347.468 192.29 347.468 197.306 344.374 200.4C341.281 203.493 336.265 203.493 333.171 200.4Z" fill="white"/>
<defs>
<linearGradient id="paint0_linear_50_22" x1="270.856" y1="162.122" x2="362.739" y2="72.414" gradientUnits="userSpaceOnUse">
<stop stop-color="white"/>
<stop offset="1" stop-color="#EEEEEE"/>
</linearGradient>
</defs>
</svg>
